Patient4_TMGait_0pt4_01_left_42_EMG.mot
version=1
nRows=33
nColumns=33
inDegrees=no
endheader
time	1LAddLong	2LGlutMax	3LGlutMed	4LIliopsoas	5LSemiMemb	6LBicFemLong	7LRecFem	8LVastMed	9LVastLat	10LGasMed	11LTibAnt	12lTibPost	13LPeroneusLong	14LSol	15LExtDigLong	16LFlexDigLong	17RAddLong	18RGlutMax	19RGlutMed	20RIliopsoas	21RSemiMemb	22RBicFemLong	23RRecFem	24RVastMed	25RVastLat	26RGasMed	27RTibAnt	28RTibPost	29RPeroneusLong	30RSol	31RExtDigLong	32RFlexDigLong
53.287	0.019073	-0.2124	-0.18433	0.00885	0.009766	-0.035553	-0.25101	-0.028381	-0.039215	0.042114	0.003815	0.057678	-0.088196	-0.029907	-0.018311	-0.019379	0.071716	1.0107	0.20767	0.04364	-0.014343	0.092163	0.3656	-0.015259	-0.021057	-0.011444	0.29404	-0.007629	0.23529	0.035858	-0.000305	-0.025482
53.288	0.010376	-0.23483	-0.21927	-0.009155	-0.061035	0.044708	-0.21683	-0.011139	-0.15732	0.049744	0.006561	0.056915	-0.098419	-0.16022	-0.026398	-1.1853	0.078583	0.96954	0.064697	0.17746	0.007782	0.070496	0.39978	-0.022125	0.005188	-0.011444	-0.20264	-0.00351	0.31403	-0.021973	0.00061	-0.019531
53.289	-0.007477	-0.26321	-0.15121	-0.004272	-0.11658	0.084381	-0.12604	0.001984	-0.17761	0.068512	0.007629	0.053101	-0.039368	-0.21652	-0.012207	0.70953	0.077515	1.0057	0.04776	0.17654	-0.010071	0.056	0.38864	-0.066376	-0.017853	0.003052	-0.5307	-0.002441	0.345	-0.087891	0.00061	-0.010681
53.29	-0.009003	-0.22461	-0.080261	0.007629	-0.14954	0.077972	-0.065308	-0.000916	-0.13626	0.055389	0.00946	0.055237	-0.072937	-0.27466	0.01297	0.5249	0.086823	0.93277	-0.11078	0.20309	-0.024719	0.041351	0.38361	-0.10178	-0.022888	0.003204	0.24963	-0.007782	0.17792	-0.11047	0.006409	-0.016632
53.291	-0.00824	-0.16312	-0.039063	0.015411	0.007172	0.057831	-0.080414	0.002441	-0.043182	0.040283	0.004425	0.035095	-0.076141	-0.076294	0.030518	-0.14267	0.092163	0.84228	-0.1152	0.11627	-0.031586	0.003815	0.42541	-0.11078	-0.029144	-0.007172	0.61706	-0.001678	-0.013428	-0.071716	-0.004272	-0.018311
53.292	0.003662	-0.09079	0.080414	-0.001526	0.17273	0.047913	-0.19577	0.005188	-0.020752	0.067444	0.010223	0.040894	-0.045471	0.045776	0.040283	-1.3886	0.076904	0.75363	-0.09613	0.058441	-0.033417	-0.011444	0.37033	-0.11185	-0.02533	-0.006104	0.8931	-0.004883	-0.082855	-0.092468	0.000763	-0.015259
53.293	-0.000305	-0.02594	0.18295	0.008698	0.064087	-0.006714	-0.1857	0.007172	0.016174	0.044098	0.010986	0.029144	-0.022583	-0.030823	0.038147	0.905	0.066833	0.72647	-0.043793	0.031128	-0.037537	-0.02533	0.3981	-0.10956	-0.020752	0.004425	0.46631	-0.007324	-0.042419	-0.061035	-0.001678	-0.010529
53.294	-0.006409	-0.00946	0.10468	0.029297	-0.025024	-0.10422	-0.17868	-0.004578	0.010223	0.030975	0.007172	0.034485	-0.020752	0.005646	0.044098	0.14984	0.019836	0.68893	-0.15381	0.032654	-0.046692	-0.025024	0.38849	-0.094299	-0.041809	0.010834	0.18997	-0.007477	0.005188	-0.13763	-0.004883	-0.00824
53.295	-0.0177	-0.020905	0.020447	0.013123	-0.046997	-0.032501	-0.17639	0.007935	-0.001526	0.014191	0.015106	0.010223	-0.034637	0.10574	0.035553	-0.10178	0.015259	0.57724	-0.15182	0.10513	-0.053711	-0.01358	0.31189	-0.047913	-0.026093	0.013275	-0.22324	-0.003967	0.019226	-0.19058	-0.001221	-0.005798
53.296	-0.025024	-0.023041	0.024719	-0.009613	-0.028229	-0.009003	-0.20004	0.006409	0.17868	-0.009613	0.00412	-0.000458	-0.012817	0.025024	0.014343	0.47257	-0.009766	0.57022	0.035095	-0.013123	-0.065918	0.010376	0.30792	-0.02182	-0.024261	0.018921	-1.5091	-0.004272	0.087128	-0.24719	0.000916	-0.011292
53.297	-0.012512	0	-0.005493	-0.010834	-0.006256	0.016937	-0.21881	0.017395	0.30701	0.001221	0.007019	0.007172	0.026245	-0.24689	-0.02121	0.073395	-0.000916	0.54123	0.075989	-0.059967	-0.061493	0.018921	0.31235	-0.029602	-0.033417	0.007935	-0.84778	-0.010986	-0.025177	-0.168	0.002899	-0.014496
53.298	-0.032654	0.06897	-0.046844	0.007477	-0.014954	0.031128	-0.24857	0.026398	0.44983	-0.015411	0.013428	0.000458	0.049133	-0.24109	-0.012817	0.10437	0	0.47852	0.056915	-0.16785	-0.058441	0.075531	0.29037	0.000763	-0.032043	0.012665	-0.1239	-0.00351	-0.00351	-0.2121	0.002594	-0.014343
53.299	-0.023346	0.10727	-0.081787	0.012054	-0.024872	0.052643	-0.21606	0.001373	0.53009	-0.049133	0.007324	0.00351	0.041504	0.068665	0.00061	0.019836	-0.028992	0.45136	-0.036316	-0.13153	-0.027008	0.12177	0.31052	0.072174	-0.029144	0.006256	-0.16968	-0.005951	0.14618	-0.11108	-0.001526	-0.022125
53.3	-0.023346	0.036621	-0.15427	-0.000458	-0.036316	0.10651	-0.15976	-0.01236	0.43961	0.002747	0.032043	-0.012054	0.029907	0.15915	-0.002289	-0.038147	-0.015869	0.42252	0.078735	-0.11017	-0.003357	0.11353	0.33707	0.039825	-0.02243	-0.003052	-0.35904	0.005341	0.14954	0.021362	-0.000305	-0.025024
53.301	-0.020447	0.079041	-0.15945	0.005035	-0.06073	0.094604	-0.14572	-0.003204	0.2182	0.014954	-0.029755	-0.010681	0.027771	0.028229	-0.013733	-0.053406	-0.019989	0.42572	0.30197	0.031586	-0.001068	0.062256	0.31128	0.038605	-0.029907	-0.008698	-0.23926	-0.010681	0.082855	0.006561	-0.00061	-0.027161
53.302	-0.022736	0.068665	-0.19516	0.001831	-0.036469	0.041351	-0.12222	0.000305	-0.11536	0.002289	-0.005493	-0.002594	0.01709	-0.078583	-0.007019	-0.066376	-0.013428	0.39749	0.24216	-0.000458	0.044708	0.032806	0.36774	0.024719	-0.030212	-0.000916	-0.042877	-0.007782	0.10391	0.121	0.000458	-0.026703
53.303	-0.011749	0.046539	-0.1622	-0.005493	-0.043488	0.075989	-0.11185	0.005646	-0.42664	-0.025482	0.011444	-0.012665	0.014191	-0.045013	-0.009918	-0.052948	0.003204	0.30106	-0.072174	0.019684	0.021362	0.06134	0.35828	-0.003967	-0.035553	-0.011902	-0.20096	-0.013275	0.039673	0.1738	0.000305	-0.020142
53.304	-0.005341	0.088196	-0.14771	-0.016937	-0.088959	0.078735	-0.121	0.0177	-0.4277	-0.035553	-0.005188	-0.003662	0.024414	-0.004883	0.005035	-0.047913	-0.035553	0.29465	-0.24277	-0.040588	0.00824	0.098114	0.345	0.025024	-0.028992	-0.009155	-0.27969	-0.009003	-0.014191	0.026398	0.004578	-0.021057
53.305	0.00885	0.14038	-0.12909	-0.002747	-0.035858	0.044098	-0.15259	0.005951	-0.19623	-0.036316	0.000763	-0.010223	-0.039978	0.024719	0.014954	-0.040741	-0.041656	0.33966	-0.045471	-0.083618	-0.010529	0.0914	0.30533	-0.04303	-0.017395	0.001373	-0.96359	-0.010834	0.086517	-0.049286	-0.000153	-0.010681
53.306	0.005035	0.15762	0.04715	-0.018616	-0.015564	0.025787	-0.15869	-0.007019	-0.010223	-0.033112	0.014191	-0.010071	-0.041962	-0.002136	0.019226	-0.034485	-0.045776	0.38223	-0.076599	-0.10513	-0.026703	0.071411	0.30411	-0.077667	-0.014496	0	-0.85464	-0.00351	0.086365	-0.018768	0.000153	-0.015869
53.307	0.007629	0.11002	0.016479	0.037689	-0.018005	-0.018921	-0.16357	-0.019073	0.079041	-0.006409	0.012512	0.000458	-0.015411	-0.046082	0.003967	-0.028687	-0.042877	0.40237	-0.1712	-0.018311	-0.031738	0.062561	0.30655	-0.093231	-0.019989	0.002136	0.010223	-0.002594	0.067139	-0.040741	0.000305	-0.008698
53.308	0.006866	0.000305	-0.068054	0.023041	0.006409	-0.092316	-0.1001	-0.029449	0.076599	-0.013123	0.017242	0.007477	0.020752	-0.0177	0.004578	-0.015106	-0.007629	0.42343	-0.066681	0.061035	-0.025787	0.035248	0.29175	-0.086212	-0.032043	0.003052	0.76904	-0.011139	0.056915	-0.02594	-0.002441	-0.00946
53.309	-0.001831	-0.04837	-0.016785	0.005035	-0.0383	-0.12451	-0.060272	-0.008087	0.005341	-0.063324	0.007019	-0.024719	0.036774	0.008545	0.003052	-0.021515	0.030212	0.40939	-0.10834	0.06012	-0.019836	0.057526	0.2977	-0.063477	-0.029907	0.00061	0.77103	-0.00885	-0.10346	0.1445	0.000305	-0.015869
53.31	0.005341	-0.016327	-0.026398	0.011749	-0.00824	-0.19196	-0.1059	-0.003967	-0.13947	-0.04425	0.005798	0.00885	0.050049	0.054016	-0.005493	-0.030365	0.094604	0.41428	-0.19226	0.072937	-0.019989	0.071716	0.28305	-0.08194	-0.046082	0.002289	0.41672	-0.004272	-0.094452	0.091705	-0.002441	-0.003815
53.311	0.000763	0.019684	-0.048676	0.003662	0.022888	-0.098267	-0.12039	0.002747	-0.35828	-0.090027	0.024109	0.004883	0.057068	0.06073	-0.004883	-0.03006	0.12482	0.42831	-0.22583	0.07431	-0.014801	0.061951	0.26047	-0.055389	-0.023041	0.00412	-0.024872	-0.005035	0.019989	0.19257	0.002594	0.003815
53.312	0.010071	0.053101	0.12466	0.006409	0.030823	0.072174	-0.14282	0.00946	-0.26901	-0.048218	0.019226	0.021667	0.0177	0.049744	0.006561	-0.044403	0.10407	0.51621	-0.23529	0.06485	-0.020447	0.036316	0.29511	-0.086975	-0.027313	-0.001678	-0.31693	-0.002899	0.048218	0.22156	0.001221	0.001373
53.313	0.016479	0.05127	0.15533	0.017242	0.033264	0.17578	-0.18448	0.005035	-0.093384	-0.061035	0.018311	0.00061	-0.004272	0.010071	0.003967	-0.028687	0.055695	0.54047	-0.14633	-0.002899	-0.028839	0.053864	0.26337	-0.053253	-0.017548	-0.014038	-0.16281	-0.003357	0.024109	0.12466	0.001526	-0.00946
53.314	0.007477	0.076904	0.038605	0.015564	0.029602	0.12131	-0.15366	0.008392	-0.085602	-0.051727	0.007935	0.062256	0.001373	-0.005035	0.002594	-0.044556	-0.000916	0.56946	-0.047302	-0.039368	-0.032349	0.054932	0.22659	-0.086365	-0.006714	-0.004272	0.14526	-0.003815	0.01709	-0.027466	-0.000916	-0.007477
53.315	0.014496	0.112	0.14816	0.014801	0.030823	0.070648	-0.10178	0.00351	-0.001221	0.003204	-0.00061	0.018005	0.016174	-0.00061	0.002441	-0.019684	-0.031738	0.62164	0.004883	-0.020905	-0.032043	0.043945	0.20981	-0.029449	0.005646	-0.002747	0.58319	-0.000153	-0.051422	-0.12131	-0.002136	-0.016327
53.316	0.001678	0.14206	0.25223	0.023804	0.000305	0.098419	-0.086517	-0.000305	0.040588	0.028381	-0.013733	-0.054932	0.017395	0.071869	-0.003815	-0.051422	-0.003967	0.62195	0.2211	-0.045776	-0.014038	0.067596	0.16693	-0.023346	0.006714	-0.000763	0.78415	-0.003967	-0.041809	-0.10269	-0.002441	-0.00885
53.317	-0.019836	0.11673	0.26855	0.028687	-0.067291	0.12283	0.016022	0.006561	0.024109	0.037689	-0.020905	-0.021667	0.017548	0.034027	-0.013733	-0.017242	-0.004578	0.68985	-0.003204	0.005341	0.002289	0.065155	0.18494	0.027618	0.001984	-0.001831	0.51148	-0.001678	0.000153	-0.10483	-0.001221	-0.009613
53.318	-0.026398	0.12543	0.1329	-0.002441	-0.15717	0.14069	-0.095673	0.009918	-0.021362	0.033722	-0.011749	0.031891	-0.010529	-0.098724	-0.019836	0.082855	-0.005188	0.69412	-0.26169	0.023346	0.014954	0.11978	0.19043	0.011444	0.018005	-0.003967	-0.56335	-0.002899	-0.079193	-0.085907	-0.000916	-0.020905
53.319	-0.017853	0.13672	-0.00412	0.001526	-0.30365	0.11185	-0.29068	0.005188	0.054474	-0.022583	-0.000305	0.007477	0.037384	-0.055389	-0.01297	0.035858	-0.049286	0.73654	-0.016785	0.052338	0.022125	0.10193	0.18051	0.018616	0.014954	-0.000916	-0.3862	-0.00824	-0.086212	-0.048065	0.001221	-0.01709
